<?xml version="1.0" standalone="no"?><!DOCTYPE svg PUBLIC "-//W3C//DTD SVG 1.1//EN" "http://www.w3.org/Graphics/SVG/1.1/DTD/svg11.dtd"><svg t="1749123786345" class="icon" viewBox="0 0 1024 1024" version="1.1" xmlns="http://www.w3.org/2000/svg" p-id="5504" id="mx_n_1749123786347" xmlns:xlink="http://www.w3.org/1999/xlink" width="200" height="200"><path d="M108.8 595.2c-6.4-12.8 0-25.6 12.8-38.4s25.6-12.8 38.4-6.4c44.8 19.2 89.6 25.6 134.4 25.6 185.6 0 339.2-153.6 339.2-339.2 0-32-6.4-57.6-12.8-83.2 0-12.8 6.4-25.6 12.8-38.4s25.6-12.8 38.4-6.4c153.6 64 249.6 217.6 249.6 377.6 0 230.4-185.6 416-416 416-185.6 0-352-128-396.8-307.2zM512 832c147.2 0 281.6-96 326.4-236.8s-6.4-294.4-128-384v25.6c0 230.4-185.6 416-416 416-32 0-57.6-6.4-89.6-12.8 57.6 115.2 172.8 192 307.2 192z" opacity=".65" p-id="5505"></path></svg>